<svg width="1810" height="1270" viewBox="0 0 1810 1270" fill="none" xmlns="http://www.w3.org/2000/svg">
<mask id="path-1-inside-1_1805_8" fill="white">
<path d="M1043.43 894.667C659.038 1214.35 250.891 1357.44 131.808 1214.25C12.7263 1071.07 227.803 695.835 612.195 376.148C996.588 56.4619 1404.73 -86.621 1523.82 56.5639C1642.9 199.749 1427.82 574.98 1043.43 894.667Z"/>
</mask>
<path d="M1037.04 886.978C845.512 1046.26 648.402 1161.25 484.82 1218.6C402.99 1247.29 330.076 1261.36 270.715 1259.68C211.333 1258 166.765 1240.64 139.497 1207.86L124.12 1220.65C156.393 1259.45 207.499 1277.9 270.149 1279.67C332.82 1281.45 408.294 1266.62 491.436 1237.47C657.796 1179.15 856.955 1062.76 1049.82 902.355L1037.04 886.978ZM139.497 1207.86C112.229 1175.07 103.285 1128.08 112.456 1069.39C121.624 1010.72 148.754 941.591 191.875 866.361C278.076 715.971 427.066 543.121 618.59 383.837L605.801 368.46C412.932 528.863 262.188 703.472 174.523 856.415C130.711 932.852 102.375 1004.36 92.6958 1066.3C83.0198 1128.23 91.8469 1181.84 124.12 1220.65L139.497 1207.86ZM618.59 383.837C810.113 224.553 1007.22 109.563 1170.81 52.2163C1252.63 23.5297 1325.55 9.45352 1384.91 11.1329C1444.29 12.813 1488.86 30.1709 1516.13 62.9582L1531.51 50.1696C1499.23 11.3644 1448.13 -7.08658 1385.48 -8.85906C1322.81 -10.6321 1247.33 4.19566 1164.19 33.3425C997.829 91.6628 798.67 208.057 605.801 368.46L618.59 383.837ZM1516.13 62.9582C1543.4 95.7454 1552.34 142.73 1543.17 201.424C1534 260.096 1506.87 329.224 1463.75 404.454C1377.55 554.844 1228.56 727.695 1037.04 886.978L1049.82 902.355C1242.69 741.952 1393.44 567.344 1481.1 414.4C1524.91 337.963 1553.25 266.456 1562.93 204.512C1572.61 142.588 1563.78 88.9748 1531.51 50.1696L1516.13 62.9582Z" fill="url(#paint0_linear_1805_8)" mask="url(#path-1-inside-1_1805_8)"/>
<mask id="path-3-inside-2_1805_8" fill="white">
<path d="M906.184 320.798C1405.79 322.62 1810.27 472.444 1809.6 655.439C1808.93 838.434 1403.38 985.304 903.767 983.481C404.157 981.659 -0.315589 831.835 0.351899 648.84C1.01939 465.845 406.574 318.976 906.184 320.798Z"/>
</mask>
<path d="M906.148 330.798C1155.09 331.706 1379.9 369.502 1542.02 429.556C1623.12 459.598 1688.02 495.017 1732.41 533.742C1776.82 572.491 1799.75 613.636 1799.6 655.403L1819.6 655.476C1819.78 605.745 1792.4 559.539 1745.55 518.671C1698.68 477.78 1631.35 441.318 1548.97 410.802C1384.12 349.739 1156.88 311.712 906.22 310.798L906.148 330.798ZM1799.6 655.403C1799.45 697.17 1776.22 738.146 1731.52 776.57C1686.85 814.97 1621.7 849.915 1540.38 879.364C1377.82 938.234 1152.75 974.389 903.803 973.481L903.73 993.481C1154.39 994.395 1381.9 958.027 1547.19 898.169C1629.79 868.255 1697.39 832.285 1744.56 791.736C1791.7 751.212 1819.42 705.206 1819.6 655.476L1799.6 655.403ZM903.803 973.481C654.858 972.573 430.054 934.777 267.929 874.723C186.826 844.681 121.935 809.262 77.5451 770.537C33.1276 731.788 10.1995 690.644 10.3518 648.876L-9.64803 648.803C-9.82943 698.534 17.5512 744.74 64.3974 785.608C111.271 826.499 178.599 862.961 260.982 893.478C425.828 954.54 653.066 992.567 903.73 993.481L903.803 973.481ZM10.3518 648.876C10.5042 607.109 33.7318 566.133 78.4308 527.709C123.103 489.309 188.25 454.364 269.57 424.915C432.129 366.045 657.202 329.89 906.148 330.798L906.22 310.798C655.556 309.884 428.047 346.252 262.76 406.11C180.156 436.024 112.564 471.995 65.3934 512.543C18.2504 553.067 -9.46664 599.073 -9.64803 648.803L10.3518 648.876Z" fill="url(#paint1_linear_1805_8)" mask="url(#path-3-inside-2_1805_8)"/>
<mask id="path-5-inside-3_1805_8" fill="white">
<path d="M1044.63 947.253C572.078 1109.46 139.956 1098.07 79.456 921.819C18.9557 745.566 352.987 471.19 825.536 308.984C1298.08 146.778 1730.21 158.165 1790.71 334.418C1851.21 510.671 1517.18 785.047 1044.63 947.253Z"/>
</mask>
<path d="M1041.38 937.795C805.935 1018.61 580.975 1056.03 407.787 1051.46C321.152 1049.18 248.028 1036.4 193.156 1013.72C138.265 991.025 102.771 958.939 88.9143 918.572L69.9977 925.066C86.3917 972.826 127.6 1008.26 185.515 1032.2C243.448 1056.15 319.233 1069.14 407.26 1071.45C583.394 1076.1 810.77 1038.1 1047.87 956.711L1041.38 937.795ZM88.9143 918.572C75.0581 878.206 83.3643 831.085 112.746 779.464C142.118 727.86 191.981 672.87 258.95 617.861C392.825 507.895 593.337 399.261 828.782 318.442L822.289 299.526C585.186 380.914 382.408 490.57 246.255 602.407C178.21 658.299 126.375 715.088 95.3644 769.57C64.3639 824.035 53.6038 877.306 69.9977 925.066L88.9143 918.572ZM828.782 318.442C1064.23 237.624 1289.19 200.211 1462.38 204.775C1549.01 207.058 1622.13 219.832 1677.01 242.518C1731.9 265.212 1767.39 297.298 1781.25 337.665L1800.16 331.171C1783.77 283.411 1742.56 247.979 1684.65 224.035C1626.71 200.084 1550.93 187.102 1462.9 184.782C1286.77 180.141 1059.39 218.138 822.289 299.526L828.782 318.442ZM1781.25 337.665C1795.1 378.031 1786.8 425.152 1757.42 476.773C1728.04 528.376 1678.18 583.367 1611.21 638.376C1477.34 748.342 1276.83 856.976 1041.38 937.795L1047.87 956.711C1284.98 875.323 1487.75 765.667 1623.91 653.83C1691.95 597.938 1743.79 541.149 1774.8 486.667C1805.8 432.202 1816.56 378.931 1800.16 331.171L1781.25 337.665Z" fill="url(#paint2_linear_1805_8)" mask="url(#path-5-inside-3_1805_8)"/>
<defs>
<linearGradient id="paint0_linear_1805_8" x1="1523.82" y1="56.5639" x2="131.808" y2="1214.25" gradientUnits="userSpaceOnUse">
<stop stop-color="white"/>
<stop offset="1" stop-color="white" stop-opacity="0"/>
</linearGradient>
<linearGradient id="paint1_linear_1805_8" x1="-1196.42" y1="638.887" x2="1809.6" y2="655.646" gradientUnits="userSpaceOnUse">
<stop stop-color="white" stop-opacity="0"/>
<stop offset="1" stop-color="white"/>
</linearGradient>
<linearGradient id="paint2_linear_1805_8" x1="1790.71" y1="334.418" x2="61.7825" y2="925.165" gradientUnits="userSpaceOnUse">
<stop stop-color="white"/>
<stop offset="1" stop-color="#FF5722" stop-opacity="0"/>
</linearGradient>
</defs>
</svg>
